<svg width="747" height="747" viewBox="0 0 747 747" fill="none" xmlns="http://www.w3.org/2000/svg">
<path d="M85.6202 207.293C65.9695 195.947 59.0617 170.656 72.4957 152.369C96.8068 119.277 126.466 90.3426 160.338 66.8008C205.485 35.4231 257.002 14.3994 311.212 5.23048C365.422 -3.93842 420.987 -1.02635 473.942 13.7588C513.672 24.8517 551.197 42.4227 585.039 65.6793C603.739 78.5305 605.533 104.687 590.707 121.863V121.863C575.88 139.04 550.063 140.662 530.973 128.397C506.58 112.725 479.918 100.74 451.844 92.9019C410.54 81.3695 367.199 79.098 324.915 86.2498C282.632 93.4015 242.448 109.8 207.234 134.275C183.3 150.909 162.063 170.996 144.18 193.818C130.185 211.679 105.271 218.638 85.6202 207.293V207.293Z" fill="#4B00FF"/>
<path d="M373.5 705.915C373.5 728.606 355.051 747.234 332.497 744.743C291.683 740.235 251.795 729.016 214.471 711.453C164.724 688.044 120.759 653.94 85.7133 611.578C50.6679 569.215 25.4071 519.638 11.7342 466.386C1.47579 426.432 -2.06984 385.148 1.15 344.212C2.92925 321.592 24.6843 306.96 46.973 311.212V311.212C69.2617 315.463 83.5748 337.011 82.4981 359.676C81.1224 388.637 84.0741 417.72 91.3227 445.951C101.988 487.488 121.691 526.158 149.026 559.201C176.362 592.244 210.655 618.844 249.458 637.103C275.831 649.513 303.845 657.862 332.551 661.938C355.016 665.127 373.5 683.224 373.5 705.915V705.915Z" fill="#0035FF"/>
<path d="M661.38 207.293C681.031 195.947 706.387 202.611 715.507 223.388C732.01 260.988 742.238 301.141 745.69 342.246C750.291 397.033 742.739 452.16 723.575 503.692C704.41 555.223 674.106 601.888 634.824 640.356C605.352 669.217 571.373 692.929 534.311 710.608C513.831 720.378 490.282 708.853 482.82 687.425V687.425C475.358 665.996 486.862 642.827 507.029 632.427C532.798 619.138 556.508 602.04 577.333 581.647C607.972 551.643 631.61 515.244 646.558 475.05C661.507 434.855 667.397 391.856 663.808 349.122C661.369 320.077 654.593 291.642 643.769 264.744C635.299 243.694 641.729 218.638 661.38 207.293V207.293Z" fill="#00B4FF"/>
</svg>
