<svg width="747" height="747" viewBox="0 0 747 747" fill="none" xmlns="http://www.w3.org/2000/svg">
<path d="M58.126 191.419C53.66 188.84 52.1197 183.123 54.809 178.722C81.8207 134.526 117.75 96.4008 160.338 66.8008C205.485 35.4231 257.002 14.3994 311.212 5.23048C365.422 -3.93842 420.987 -1.02635 473.942 13.7588C523.896 27.7063 570.365 51.8952 610.408 84.7498C614.395 88.0208 614.821 93.927 611.451 97.8308V97.8308C608.082 101.735 602.193 102.157 598.202 98.8915C560.242 67.8303 516.226 44.9541 468.919 31.7459C418.613 17.7 365.826 14.9335 314.326 23.644C262.827 32.3544 213.886 52.327 170.997 82.1358C130.665 110.167 96.6206 146.246 70.9873 188.063C68.2922 192.46 62.5921 193.997 58.126 191.419V191.419Z" fill="#4B00FF"/>
<path d="M373.5 737.662C373.5 742.819 369.318 747.012 364.163 746.883C312.382 745.589 261.4 733.536 214.471 711.453C164.724 688.044 120.759 653.94 85.7133 611.578C50.6679 569.215 25.4071 519.638 11.7342 466.386C-1.16411 416.15 -3.45016 363.813 4.98079 312.706C5.82019 307.618 10.7222 304.296 15.7878 305.263V305.263C20.8534 306.229 24.1638 311.117 23.3311 316.207C15.4112 364.611 17.6079 414.169 29.8225 461.741C42.8118 512.331 66.8095 559.429 100.103 599.674C133.396 639.918 175.163 672.316 222.423 694.555C266.864 715.468 315.132 726.912 364.163 728.202C369.319 728.338 373.5 732.506 373.5 737.662V737.662Z" fill="#0035FF"/>
<path d="M688.874 191.419C693.34 188.84 699.062 190.365 701.528 194.894C726.297 240.385 741.35 290.563 745.69 342.246C750.291 397.033 742.739 452.16 723.575 503.692C704.41 555.223 674.106 601.888 634.824 640.356C597.768 676.644 553.585 704.792 505.111 723.044C500.284 724.861 494.957 722.277 493.261 717.407V717.407C491.565 712.536 494.143 707.225 498.967 705.402C544.847 688.058 586.666 661.377 621.758 627.013C659.075 590.469 687.865 546.137 706.071 497.182C724.277 448.227 731.451 395.857 727.081 343.809C722.971 294.865 708.747 247.343 685.349 204.235C682.889 199.702 684.408 193.997 688.874 191.419V191.419Z" fill="#00B4FF"/>
</svg>
