<svg width="29" height="32" viewBox="0 0 29 32" fill="none" xmlns="http://www.w3.org/2000/svg">
<path d="M15.0003 16L26.5559 22.2222L15.0003 29.3333L1.66699 23.1111L15.0003 16Z" fill="#919191"/>
<path d="M15 2.66675L26.5556 9.77786V22.3049L15 16.0001V2.66675Z" fill="#D7D7D7"/>
<path d="M15 1.77783L2.55556 8.88894L1.66667 23.1112L15 16.0001V1.77783Z" fill="#707070"/>
<path d="M14.8721 29.0746L26.3957 22.249L28.9664 23.756L14.8721 31.9998L14.8721 29.0746Z" fill="black"/>
<path d="M14.8721 29.0746L3.34845 22.249L0.777777 23.756L14.8721 31.9998L14.8721 29.0746Z" fill="black"/>
<path d="M26.3955 9.66197L28.9662 8.15503V23.7563L26.3955 22.2493V9.66197Z" fill="black"/>
<path d="M3.34863 9.66197L0.777975 8.15503V23.7563L3.34863 22.2493V9.66197Z" fill="url(#paint0_linear_270_272)"/>
<path d="M14.8721 0L28.9664 8.15519L26.3957 9.66213L14.8721 2.92406V0Z" fill="#999999"/>
<path d="M14.8721 0L0.777777 8.15519L3.34843 9.66213L14.8721 2.92406V0Z" fill="#A7A6A7"/>
<path d="M7.88867 11.3779L14.9998 15.6446V24.1779L7.88867 19.9113V11.3779Z" fill="#D9D9D9"/>
<path d="M22.1113 11.3779L15.0002 15.6446V24.1779L22.1113 19.9113V11.3779Z" fill="#585858"/>
<path d="M22.1113 11.3778L15.0002 15.6444L7.88911 11.3778L15.0002 7.11108L22.1113 11.3778Z" fill="#C4C4C4"/>
<defs>
<linearGradient id="paint0_linear_270_272" x1="3.34863" y1="9.66197" x2="0.777978" y2="23.7563" gradientUnits="userSpaceOnUse">
<stop stop-color="#454545"/>
<stop offset="1"/>
</linearGradient>
</defs>
</svg>
