<svg width="500" height="500" viewBox="0 0 500 500" fill="none" xmlns="http://www.w3.org/2000/svg">
<rect width="60.2063" height="60.2724" rx="16" transform="matrix(1 0 0.00385616 0.999992 155.16 296.192)" fill="#0038FF" fill-opacity="0.65"/>
<rect width="60.2063" height="60.2724" rx="16" transform="matrix(1 0 0.00385616 0.999992 231.321 296.192)" fill="#00B4FF" fill-opacity="0.37"/>
<rect width="60.2063" height="60.2724" rx="16" transform="matrix(1 0 0.00385616 0.999992 155.16 219.949)" fill="#0000E9" fill-opacity="0.83"/>
<rect width="60.2063" height="60.2724" rx="16" transform="matrix(1 0 0.00385616 0.999992 231.321 219.949)" fill="#0000E9" fill-opacity="0.68"/>
<rect width="60.2063" height="60.2724" rx="16" transform="matrix(1 0 0.00386038 0.999992 231.321 143.704)" fill="#0000E9"/>
<path d="M79.0617 312.192C79.0276 303.356 86.1634 296.192 95 296.192H123.206C132.043 296.192 139.234 303.356 139.268 312.192L139.377 340.464C139.411 349.301 132.275 356.464 123.439 356.464H95.2324C86.3959 356.464 79.2048 349.301 79.1707 340.464L79.0617 312.192Z" fill="#0038FF" fill-opacity="0.83"/>
<path d="M348.53 146.337C344.063 139.846 333.915 142.99 333.946 150.855L334.327 249.5L334.709 348.145C334.739 356.01 344.912 359.154 349.328 352.663L416.455 254.018C418.309 251.294 418.295 247.706 416.42 244.982L348.53 146.337Z" fill="#0000E9" fill-opacity="0.83"/>
<path d="M401.813 62.402C404.858 58.6488 404.287 53.1227 400.424 50.2182C360.698 20.3509 312.885 2.94662 263.084 0.341916C210.361 -2.41557 158.117 11.5553 113.84 40.2522C69.5623 68.9491 35.5244 110.899 16.6046 160.089C-1.26773 206.555 -4.78297 257.229 6.4008 305.598C7.48852 310.302 12.2977 313.067 16.9623 311.82V311.82C21.6334 310.571 24.3883 305.772 23.3119 301.058C13.0818 256.26 16.3965 209.365 32.9422 166.348C50.5377 120.601 82.1929 81.5877 123.371 54.8996C164.549 28.2115 213.136 15.2186 262.168 17.7831C308.29 20.1953 352.578 36.2566 389.431 63.8209C393.291 66.7078 398.776 66.1449 401.813 62.402V62.402Z" fill="#0035FF"/>
<path d="M98.1872 437.598C95.1418 441.351 95.7127 446.877 99.576 449.782C139.302 479.649 187.115 497.053 236.916 499.658C289.638 502.416 341.882 488.445 386.16 459.748C430.437 431.052 464.475 389.102 483.395 339.912C501.267 293.446 504.783 242.772 493.6 194.404C492.512 189.699 487.703 186.934 483.038 188.182V188.182C478.367 189.431 475.612 194.229 476.688 198.943C486.918 243.741 483.603 290.636 467.057 333.654C449.462 379.4 417.806 418.413 376.628 445.101C335.45 471.789 286.864 484.781 237.832 482.217C191.71 479.805 147.422 463.743 110.569 436.179C106.709 433.292 101.224 433.855 98.1872 437.598V437.598Z" fill="#00B4FF"/>
</svg>
