<svg width="500" height="500" viewBox="0 0 500 500" fill="none" xmlns="http://www.w3.org/2000/svg">
<path d="M314.685 109.161C310.217 102.67 300.07 105.814 300.1 113.679L300.627 250L301.155 386.321C301.185 394.186 311.357 397.329 315.774 390.839L408.539 254.518C410.392 251.794 410.379 248.205 408.504 245.482L314.685 109.161Z" fill="#0000E9" fill-opacity="0.83"/>
<path d="M229.037 155.335C229.017 150.018 233.31 145.708 238.626 145.708V145.708C243.943 145.708 248.269 150.018 248.29 155.335L249.022 344.665C249.043 349.981 244.75 354.291 239.433 354.291V354.291C234.117 354.291 229.79 349.981 229.77 344.665L229.037 155.335Z" fill="#0038FF" fill-opacity="0.83"/>
<path d="M158.037 180.285C158.017 174.968 162.31 170.659 167.626 170.659V170.659C172.943 170.659 177.269 174.968 177.29 180.285L177.829 319.715C177.85 325.031 173.557 329.341 168.24 329.341V329.341C162.924 329.341 158.597 325.031 158.577 319.715L158.037 180.285Z" fill="#597EFF"/>
<path d="M87.0372 218.209C87.0167 212.893 91.3099 208.583 96.6263 208.583V208.583C101.943 208.583 106.269 212.893 106.29 218.209L106.536 281.791C106.556 287.107 102.263 291.417 96.9468 291.417V291.417C91.6303 291.417 87.3037 287.107 87.2832 281.791L87.0372 218.209Z" fill="#A1E3FF"/>
<path d="M98.1872 62.402C95.1418 58.6488 95.7127 53.1227 99.576 50.2182C139.302 20.3509 187.115 2.94662 236.916 0.341916C289.639 -2.41557 341.883 11.5553 386.16 40.2522C430.438 68.9491 464.476 110.899 483.395 160.089C501.268 206.555 504.783 257.229 493.599 305.598C492.511 310.302 487.702 313.067 483.038 311.82V311.82C478.367 310.571 475.612 305.772 476.688 301.058C486.918 256.26 483.604 209.365 467.058 166.348C449.462 120.601 417.807 81.5877 376.629 54.8996C335.451 28.2115 286.864 15.2186 237.832 17.7831C191.71 20.1953 147.422 36.2566 110.569 63.8209C106.709 66.7078 101.224 66.1449 98.1872 62.402V62.402Z" fill="#0035FF"/>
<path d="M401.813 437.598C404.858 441.351 404.287 446.877 400.424 449.782C360.698 479.649 312.885 497.053 263.084 499.658C210.362 502.416 158.118 488.445 113.84 459.748C69.5629 431.052 35.525 389.102 16.605 339.912C-1.26748 293.446 -4.78299 242.772 6.40044 194.404C7.48814 189.699 12.2973 186.934 16.9619 188.182V188.182C21.633 189.431 24.388 194.229 23.3116 198.943C13.0818 243.741 16.3967 290.636 32.9426 333.654C50.5382 379.4 82.1935 418.413 123.372 445.101C164.55 471.789 213.136 484.781 262.168 482.217C308.29 479.805 352.578 463.743 389.431 436.179C393.291 433.292 398.776 433.855 401.813 437.598V437.598Z" fill="#00B4FF"/>
</svg>
